<svg xmlns="http://www.w3.org/2000/svg" xmlns:xlink="http://www.w3.org/1999/xlink" version="1.1" id="Your_Icon" x="0px" y="0px" width="100px" height="100px" viewBox="0 0 100 100" enable-background="new 0 0 100 100" xml:space="preserve">
<g>
	<g>
		<path d="M89.149,64.149C85.25,68.047,80.125,70.001,75,70.001c-5.125,0-10.25-1.954-14.149-5.852    c-0.131-0.131-0.634-0.634-0.765-0.765l-4.924-4.925c-0.909-0.909-0.909-2.383,0.005-3.297c0.909-0.909,2.383-0.909,3.297,0    l4.924,4.925c0.131,0.135,0.63,0.634,0.76,0.765c5.983,5.983,15.72,5.983,21.703,0c2.901-2.901,4.495-6.752,4.495-10.852    s-1.595-7.956-4.495-10.852c-5.983-5.983-15.72-5.983-21.703,0l-25,25C35.366,67.926,30.344,70.01,25,70.01    c-5.344,0-10.371-2.084-14.149-5.862c-7.802-7.802-7.802-20.495,0-28.297C14.629,32.069,19.656,29.99,25,29.99    c5.344,0,10.367,2.08,14.149,5.862c0.093,0.093,0.457,0.457,0.55,0.55l0.214,0.214V32.9c0-1.287,1.045-2.332,2.332-2.332    c1.287,0,2.332,1.045,2.332,2.332v9.345c0,1.287-1.045,2.332-2.332,2.332H32.9c-1.287,0-2.332-1.045-2.332-2.332    c0-1.287,1.045-2.332,2.332-2.332h3.717l-0.214-0.215c-0.098-0.093-0.457-0.457-0.55-0.55c-2.901-2.901-6.753-4.495-10.852-4.495    c-4.099,0-7.956,1.595-10.852,4.495C11.248,42.044,9.653,45.901,9.653,50s1.595,7.951,4.495,10.852    c2.896,2.896,6.752,4.495,10.852,4.495c4.099,0,7.951-1.6,10.852-4.495l25-25c7.802-7.802,20.495-7.802,28.297,0    S96.95,56.347,89.149,64.149z"/>
	</g>
</g>
</svg>